# xmcd CD database file
#
# Track frame offsets:
#	150
#	13637
#	28834
#	45971
#	59818
#
# Disc length: 931 seconds
#
# Revision: 1
# Processed by: cddbd v1.4PL0 Copyright (c) Steve Scherf et al.
# Submitted via: CDex 1.50beta10
#
DISCID=3b03a105
DTITLE=Swampflowers - Swampflowers
DYEAR=2000
DGENRE=Country
TTITLE0=Round Again
TTITLE1=Kiss it Goodbye
TTITLE2=Pretty Baby
TTITLE3=Rain Song
TTITLE4=Dirty Rotten Stinkin' S.O.B
EXTD=YEAR: 2000
EXTT0=
EXTT1=
EXTT2=
EXTT3=
EXTT4=
PLAYORDER=
